<svg width="164" height="163" viewBox="0 0 164 163" fill="none" xmlns="http://www.w3.org/2000/svg">
<path d="M16.6221 159.522C15.3381 159.522 14.1236 159.453 12.909 159.314L6.4545 155.601L6.3504 155.809L12.2844 159.245C5.20524 158.238 0 154.907 0 150.916C0 147.62 3.57427 144.739 8.84891 143.282L19.9881 149.737L12.7702 153.901L12.8743 154.109L20.1963 149.875L30.3639 155.74C27.3796 158.065 22.3131 159.557 16.5527 159.557L16.6221 159.522ZM30.6415 155.532L20.5087 149.702L28.6982 144.982C31.5091 146.544 33.2442 148.626 33.2442 150.916C33.2442 152.617 32.2725 154.213 30.6415 155.566V155.532ZM20.2657 149.563L9.19593 143.178C11.4168 142.588 13.9501 142.276 16.6221 142.276C21.2374 142.276 25.4363 143.247 28.4553 144.844L20.2657 149.563Z" fill="#6FD5F4"/>
<path d="M55.7306 152.236C52.5034 152.236 49.4496 151.751 46.9164 150.918L45.6672 150.189L57.5698 143.318L68.0844 149.391C65.0307 151.126 60.6583 152.236 55.7653 152.236H55.7306ZM45.5978 150.467C45.5284 150.432 45.4242 150.397 45.3548 150.362L45.3895 150.328L45.5978 150.432V150.467ZM45.0772 150.258C43.6892 149.668 42.5093 148.94 41.5724 148.142L45.1813 150.224L45.1119 150.258H45.0772ZM45.3895 150.085L40.8089 147.448C39.7332 146.302 39.1086 145.018 39.1086 143.665C39.1086 140.785 41.7806 138.252 45.9101 136.69L57.2922 143.249L45.3895 150.12V150.085ZM68.2579 149.287L57.7433 143.214L67.5292 137.558C70.4788 139.119 72.318 141.271 72.318 143.63C72.318 145.782 70.7911 147.76 68.2579 149.287ZM57.5004 143.075L46.1877 136.551C48.8944 135.58 52.1564 134.99 55.6959 134.99C60.2071 134.99 64.2672 135.927 67.2863 137.419L57.5004 143.075Z" fill="#6FD5F4"/>
<path d="M147.378 103.065C142.832 103.065 138.703 102.128 135.718 100.566L135.614 98.2415L142.416 94.3202L155.151 101.677L153.971 102.336C151.924 102.787 149.703 103.065 147.343 103.065H147.378ZM154.839 102.128L155.394 101.816L155.602 101.92C155.359 101.989 155.082 102.059 154.839 102.128ZM155.915 101.816L155.637 101.642L162.89 97.4433C161.571 99.2825 159.072 100.809 155.915 101.781V101.816ZM155.394 101.503L142.659 94.1467L154.561 87.2758L163.584 92.481C163.861 93.1056 164 93.7303 164 94.3896C164 95.2918 163.722 96.1594 163.237 96.9922L155.429 101.503H155.394ZM135.579 97.9292L135.232 90.1213L142.138 94.112L135.545 97.9292H135.579ZM142.416 93.9732L135.232 89.8437L135.163 88.525C138.182 86.8247 142.52 85.7489 147.343 85.7489C149.217 85.7489 150.987 85.9224 152.687 86.2L154.284 87.137L142.381 94.0079L142.416 93.9732ZM163.375 92.0646L154.769 87.1023L155.325 86.79C159.211 87.9004 162.161 89.809 163.375 92.0646ZM154.526 86.9635L153.381 86.3041C153.937 86.4082 154.457 86.547 154.978 86.6858L154.492 86.9635H154.526Z" fill="#6FD5F4"/>
<path d="M32.6195 57.259L17.7325 65.8997L15.581 90.5726L24.3952 96.0902L42.2665 84.7427L40.9826 58.2307L37.5818 58.9247L35.1527 55.8363L32.6195 57.259Z" fill="#6FD5F4"/>
<path d="M17.7325 65.897L20.2657 70.8594L24.6728 68.3262L24.3952 96.0875L15.581 90.5699L17.7325 65.897Z" fill="#A5EAFF"/>
<path d="M24.6733 68.3277L40.9831 58.2295L42.2671 84.7416L24.3957 96.089L24.6733 68.3277Z" fill="#E2F8FF"/>
<path d="M31.3691 69.6478C31.265 70.3072 30.8833 70.793 30.5016 70.7236C30.1199 70.6542 29.9117 70.099 30.0158 69.4396C30.1199 68.7803 30.5016 68.2945 30.8833 68.3639C31.265 68.4333 31.4733 68.9885 31.3691 69.6478Z" fill="#20C1F3"/>
<path d="M36.7145 66.3141C36.6104 66.9735 36.2286 67.4593 35.8469 67.3899C35.4652 67.3205 35.257 66.7653 35.3611 66.1059C35.4652 65.4466 35.8469 64.9608 36.2286 65.0302C36.6104 65.0996 36.8186 65.6548 36.7145 66.3141Z" fill="#20C1F3"/>
<path d="M15.581 90.5714L20.1269 88.871L24.3952 96.0889L15.581 90.5714Z" fill="#91E5FF"/>
<path d="M35.153 55.8363V61.8397L24.6731 68.3289L20.266 70.8621L17.7328 65.8998L34.0772 56.4262L35.153 55.8363Z" fill="#20C1F3"/>
<path d="M33.4873 75.9607C33.1749 75.9607 32.8626 75.8566 32.5503 75.6831C30.7458 74.4686 30.4682 69.7492 30.4335 69.5409L30.8846 69.5062C30.8846 69.5409 31.197 74.191 32.7932 75.3014C33.1402 75.5443 33.4873 75.579 33.9037 75.4402C36.1593 74.6768 36.0205 68.5693 35.7776 66.279L36.2287 66.2443C36.2634 66.5913 37.0962 74.885 34.0425 75.8913C33.8343 75.9607 33.6261 75.9954 33.4526 75.9954L33.4873 75.9607Z" fill="#20C1F3"/>
<path d="M45.9453 64.2689L31.0583 72.9096L28.9068 97.6171L37.721 103.135L55.5924 91.7873L54.3084 65.2752L50.9077 65.9692L48.4785 62.8461L45.9453 64.2689Z" fill="#6470B3"/>
<path d="M31.0583 72.9068L33.5915 77.9038L37.9986 75.3359L37.721 103.132L28.9068 97.6144L31.0583 72.9068Z" fill="#A5EAFF"/>
<path d="M37.9987 75.337L54.3085 65.2736L55.5925 91.7856L37.7211 103.133L37.9987 75.337Z" fill="#E2F8FF"/>
<path d="M44.695 76.6544C44.5908 77.3137 44.2091 77.7995 43.8274 77.7301C43.4457 77.6607 43.2375 77.1055 43.3416 76.4462C43.4457 75.7868 43.8274 75.301 44.2091 75.3704C44.5908 75.4398 44.7991 75.9951 44.695 76.6544Z" fill="#20C1F3"/>
<path d="M50.0742 73.3583C49.9701 74.0176 49.5884 74.5034 49.2067 74.434C48.825 74.3646 48.6167 73.8094 48.7208 73.1501C48.825 72.4907 49.2067 72.0049 49.5884 72.0743C49.9701 72.1437 50.1783 72.6989 50.0742 73.3583Z" fill="#433F74"/>
<path d="M28.9068 97.6154L33.4527 95.915L37.721 103.133L28.9068 97.6154Z" fill="#91E5FF"/>
<path d="M48.4788 62.8461V68.8495L37.9989 75.3387L33.5918 77.9066L31.0586 72.9096L47.4031 63.4707L48.4788 62.8461Z" fill="#20C1F3"/>
<path d="M46.8471 83.0048C46.5347 83.0048 46.2224 82.9007 45.9101 82.7272C44.1056 81.5126 43.828 76.7932 43.7933 76.585L44.2444 76.5503C44.2444 76.585 44.5567 81.235 46.153 82.3455C46.5 82.5884 46.8471 82.6231 47.2635 82.4843C49.5191 81.7208 49.3803 75.6134 49.1374 73.3231L49.5885 73.2884C49.6232 73.6354 50.456 81.9291 47.4023 82.9354C47.1941 83.0048 46.9859 83.0395 46.8123 83.0395L46.8471 83.0048Z" fill="#20C1F3"/>
<path d="M139.083 71.0333H139.014C138.944 70.9986 138.944 70.9292 138.979 70.8945L141.026 67.2162C141.061 67.1468 141.131 67.1468 141.165 67.1815C141.235 67.2162 141.235 67.2856 141.2 67.3203L139.153 70.9986L139.048 71.068L139.083 71.0333Z" fill="#433F74"/>
<path d="M142.347 67.8777L137.002 70.9661L136.239 79.815L139.397 81.793L145.782 77.7329L145.331 68.2247L144.116 68.4676L143.249 67.3571L142.347 67.8777Z" fill="#C98A48"/>
<path d="M137.002 70.9663L137.939 72.7361L139.501 71.8338L139.397 81.7932L136.239 79.8152L137.002 70.9663Z" fill="#EAC6A5"/>
<path d="M139.501 71.8306L145.331 68.2217L145.782 77.7299L139.397 81.79L139.501 71.8306Z" fill="#F0A98D"/>
<path d="M141.895 72.3198C141.86 72.5627 141.721 72.7362 141.583 72.7015C141.444 72.6668 141.374 72.4586 141.409 72.2504C141.444 72.0075 141.583 71.8339 141.721 71.8686C141.86 71.9034 141.93 72.1116 141.895 72.3198Z" fill="#433F74"/>
<path d="M143.803 71.1382C143.768 71.3811 143.63 71.5546 143.491 71.5199C143.352 71.4852 143.283 71.277 143.317 71.0688C143.352 70.8259 143.491 70.6524 143.63 70.6871C143.768 70.7218 143.838 70.93 143.803 71.1382Z" fill="#433F74"/>
<path d="M136.239 79.8132L137.87 79.1885L139.397 81.7911L136.239 79.8132Z" fill="#F0A98D"/>
<path d="M152.653 45.2142C152.653 47.1227 151.091 48.6843 149.183 48.6843C147.274 48.6843 145.712 47.1227 145.712 45.2142C145.712 43.3056 147.274 41.744 149.183 41.744C151.091 41.744 152.653 43.3056 152.653 45.2142Z" fill="#E995BF"/>
<path d="M144.324 62.013C144.324 62.013 144.047 65.7954 143.942 66.5242C143.838 67.2876 143.699 74.679 144.081 76.9693C144.22 77.8369 142.277 78.9126 141.27 80.8212C140.091 83.0421 139.605 85.7836 138.911 86.9981L138.876 87.0675C138.772 87.241 138.702 87.4145 138.633 87.5186L137.627 88.3862C137.349 88.6291 137.176 88.9761 137.141 89.3231L136.69 94.1119C136.655 94.4243 136.863 94.7019 137.141 94.806C137.488 94.9101 137.835 94.7366 137.939 94.3896C138.46 92.8627 139.778 88.9414 139.778 88.7679C141.93 85.61 146.996 79.8496 147.76 78.2186C148.592 76.3447 150.432 67.3917 150.432 67.3917L151.993 63.7133L144.324 61.9783V62.013Z" fill="#E983B4"/>
<path d="M151.022 92.3053C151.473 90.5008 153.694 80.125 153.694 77.0713C153.694 73.7746 152.618 61.9761 152.618 61.9761L144.116 61.7331L143.457 64.6134L147.274 67.7365C147.274 67.7365 149.772 77.0019 149.981 78.8411C150.085 79.5698 148.974 80.2291 148.905 82.6235C148.801 85.9202 149.321 94.2486 149.356 94.2833C149.391 94.3874 152.757 93.971 152.757 93.971C152.757 93.971 156.192 93.381 155.88 92.9646C155.672 92.687 151.403 92.8952 151.022 92.3053Z" fill="#E995BF"/>
<path d="M146.51 48.6878C146.51 48.6878 143.734 47.3692 142.693 48.6878C141.652 50.0065 138.667 56.114 138.32 57.9532C137.973 59.7924 138.667 64.0607 139.014 65.2058C139.361 66.351 140.854 65.2058 140.854 65.2058C140.854 65.2058 141.305 59.5495 141.444 59.0983C141.548 58.6472 143.769 53.095 143.769 53.095C143.769 53.095 144.463 55.8711 144.914 56.9121C145.365 57.9532 144.324 60.9375 144.116 61.7704C143.873 62.5685 145.955 63.4013 147.69 63.5055C149.425 63.6096 152.652 62.2215 152.652 62.2215C152.652 62.2215 151.993 59.7577 152.028 57.2592C152.062 54.7606 152.791 52.2274 151.75 51.7069C149.668 50.6658 146.545 48.6531 146.545 48.6531L146.51 48.6878Z" fill="#D1D4EB"/>
<path d="M140.055 53.613C139.222 55.3828 138.493 57.1178 138.354 57.9854C138.007 59.8246 138.701 64.0929 139.048 65.238C139.395 66.3832 140.887 65.238 140.887 65.238C140.887 65.238 141.339 59.5817 141.477 59.1305C141.547 58.8529 142.414 56.5973 143.074 54.9316C141.72 55.0704 140.679 54.2723 140.055 53.613Z" fill="#E995BF"/>
<path d="M151.715 51.7412C151.16 51.4636 150.535 51.1165 149.91 50.7695C149.39 50.9777 148.973 51.1512 148.973 51.1512L148.626 54.6214C148.626 54.6214 148.835 60.139 149.216 63.3662C150.847 63.0192 152.652 62.2558 152.652 62.2558C152.652 62.2558 151.923 59.5837 151.958 57.1199C151.993 54.5867 152.756 52.2964 151.715 51.7412Z" fill="#C8C9E5"/>
<path d="M161.953 53.0592C161.953 53.892 161.293 54.5513 160.46 54.5513C159.628 54.5513 158.968 53.892 158.968 53.0592C158.968 52.2263 159.628 51.567 160.46 51.567C161.293 51.567 161.953 52.2263 161.953 53.0592Z" fill="#E995BF"/>
<path d="M148.036 49.6914L151.714 51.7041C151.714 51.7041 152.755 52.0858 153.796 54.5843C154.838 57.1176 156.33 59.5467 157.024 59.7549C157.718 59.9978 159.8 54.5496 160.251 54.2026C160.702 53.8556 161.5 53.0922 161.396 54.5843C161.292 56.0765 160.355 62.7739 158.863 63.3292C157.371 63.9191 147.516 56.1112 147.377 54.0291C147.273 51.947 148.001 49.6567 148.001 49.6567L148.036 49.6914Z" fill="#D1D4EB"/>
<path d="M160.217 53.9615C159.765 54.3086 157.718 60.0343 157.024 59.7914C156.989 59.7914 156.955 59.7567 156.885 59.722L156.851 59.6873L156.746 59.6179L156.712 59.5832C156.677 59.5485 156.608 59.4791 156.573 59.4444L156.538 59.375C156.503 59.3403 156.469 59.3056 156.434 59.2362L156.365 59.1668C156.33 59.1321 156.295 59.0627 156.261 59.028C156.226 58.9933 156.191 58.9239 156.156 58.8892C156.122 58.8545 156.087 58.7851 156.052 58.7504C156.018 58.7157 155.983 58.6463 155.948 58.6116L155.879 58.5075C155.74 58.2992 155.601 58.091 155.462 57.8481L155.428 57.8134C155.22 57.4664 155.011 57.0847 154.803 56.6683C154.317 57.397 153.38 58.6116 152.339 59.4444C155.115 61.7 158.169 63.678 158.933 63.3657C160.425 62.7758 161.362 56.113 161.466 54.6209C161.57 53.1287 160.737 53.6145 160.251 53.9615H160.217Z" fill="#E995BF"/>
<path d="M157.997 54.4476L157.962 54.4129L157.858 54.274L158.101 53.9964C158.483 53.1636 159.559 50.908 159.628 50.8039C159.697 50.6304 159.871 50.6304 159.871 50.6304C159.871 50.6304 161.086 50.4569 161.502 50.4222L161.641 50.2834L161.745 50.4222V50.5263C161.745 50.5263 160.149 53.8923 160.079 54.0311C160.044 54.0658 160.01 54.1352 159.975 54.1352C159.906 54.2046 159.802 54.2046 159.802 54.2046L158.205 54.4129C158.205 54.4129 158.205 54.4129 158.032 54.4476C157.997 54.4476 157.962 54.4476 157.928 54.4476H157.997Z" fill="#474498"/>
<path d="M160.217 53.4389L158.378 53.5083C158.274 53.7165 158.204 53.8901 158.135 54.0289L157.892 54.3065L157.996 54.4453L158.031 54.48C158.031 54.48 158.066 54.5147 158.135 54.48C158.309 54.4453 158.309 54.4453 158.309 54.4453L159.905 54.2371C159.905 54.2371 159.974 54.2371 160.078 54.1677C160.113 54.133 160.148 54.0983 160.182 54.0636C160.182 54.0289 160.287 53.8554 160.425 53.5777L160.321 53.4389H160.217Z" fill="#474498"/>
<path d="M161.779 50.5263V50.4222L161.675 50.2834L161.536 50.4222H161.501L161.571 50.561L161.675 50.6998C161.709 50.5957 161.744 50.5263 161.744 50.5263H161.779Z" fill="#474498"/>
<path d="M158.169 54.3084L159.765 54.1002C159.765 54.1002 159.939 54.0655 160.008 53.9267C160.077 53.7532 161.674 50.4218 161.674 50.4218C161.674 50.4218 161.743 50.2483 161.57 50.283C161.396 50.3177 159.8 50.5259 159.8 50.5259C159.8 50.5259 159.626 50.5606 159.557 50.6994C159.488 50.873 157.891 54.2043 157.891 54.2043C157.891 54.2043 157.822 54.3778 157.995 54.3431C158.169 54.3084 158.169 54.3084 158.169 54.3084Z" fill="#5759A5"/>
<path d="M158.136 53.7166L159.489 50.8364L161.606 50.5588L160.218 53.439L158.136 53.7166Z" fill="#433F74"/>
<path d="M159.142 53.7199C159.176 53.7893 159.142 53.8587 159.038 53.9628C158.933 54.0322 158.829 54.0322 158.795 53.9975C158.76 53.9281 158.795 53.8587 158.899 53.7546C159.003 53.6852 159.107 53.6852 159.142 53.7199Z" fill="#433F74"/>
<path d="M160.352 50.5588L160.32 50.5909H160.287V50.5588H160.352Z" fill="#433F74"/>
<path d="M160.424 50.5588V50.5911H160.391L160.424 50.5588Z" fill="#433F74"/>
<path d="M160.876 50.5256L160.841 50.4909L160.494 50.5603H160.459L160.494 50.595L160.841 50.5603L160.876 50.5256Z" fill="#4A4690"/>
<path d="M139.014 65.2381C139.014 65.2381 139.812 67.9795 141.2 68.0142C141.061 67.3202 141.2 65.7933 141.2 65.7933C141.2 65.7933 141.061 66.1056 140.853 65.2381C140.645 64.3705 140.124 63.503 140.124 63.503L139.014 65.2381Z" fill="#E995BF"/>
<path d="M141.653 72.3889C141.583 72.3889 141.548 72.3542 141.548 72.2848V66.212C141.548 66.1426 141.583 66.1079 141.653 66.1079C141.687 66.1079 141.757 66.1426 141.791 66.1773L143.7 71.0702C143.735 71.1396 143.7 71.1743 143.631 71.209C143.561 71.2437 143.526 71.209 143.492 71.1396L141.791 66.7672V72.2848C141.791 72.3542 141.757 72.3889 141.687 72.3889H141.653Z" fill="#433F74"/>
<path d="M142.31 66.9053C142.31 67.5299 141.825 68.0158 141.2 68.0158C140.575 68.0158 140.09 67.5299 140.09 66.9053C140.09 66.2807 140.575 65.7949 141.2 65.7949C141.825 65.7949 142.31 66.2807 142.31 66.9053Z" fill="#E995BF"/>
<path d="M141.755 72.3198C141.686 72.3198 141.651 72.2851 141.651 72.2157L141.513 67.288C141.513 67.2186 141.547 67.1839 141.617 67.1839C141.686 67.1839 141.721 67.2186 141.721 67.288L141.86 72.2157C141.86 72.2851 141.825 72.3198 141.755 72.3198Z" fill="#433F74"/>
<path d="M146.961 46.1195L146.441 49.8326C146.823 50.6654 147.655 51.1859 148.558 51.1512H148.974L149.807 47.2299L146.961 46.1195Z" fill="#E995BF"/>
<path d="M151.473 46.2229C151.473 45.7024 150.779 45.3554 150.363 45.6677C150.085 45.8759 150.016 46.327 150.12 46.674C150.224 47.0211 150.467 47.3334 150.71 47.611C149.599 48.3397 148.419 48.9296 147.205 49.3808C146.684 48.6173 146.164 47.8886 145.643 47.1252C145.4 46.7781 145.157 46.4311 145.053 46.0494C144.81 45.1472 145.157 43.5509 145.782 42.8569C146.615 41.8505 147.795 41.3994 149.079 41.2953C150.085 41.2259 151.334 41.9199 151.994 42.7181C152.861 43.7591 151.89 45.1472 151.473 46.2576V46.2229Z" fill="#B66193"/>
<path d="M143.699 47.9233C143.664 48.0274 143.629 48.1315 143.664 48.2356C143.699 48.3397 143.768 48.4438 143.838 48.5132C144.185 48.9644 144.601 49.3461 145.052 49.6931C145.434 49.9707 145.816 50.2483 146.232 50.4218C147.655 51.0118 149.286 50.8035 150.813 50.5953C150.708 49.589 150.674 48.5826 150.708 47.5763C150.049 47.3334 149.598 46.7087 149.563 46.0147C149.563 45.5289 149.737 45.0778 149.633 44.5919C149.355 43.2733 147.481 42.961 146.371 43.1345C145.295 43.308 144.948 44.2449 144.601 45.1819C144.254 46.0841 143.976 46.9864 143.699 47.9233Z" fill="#B66193"/>
<path d="M151.091 47.0903C151.091 47.2985 150.917 47.472 150.709 47.472C150.501 47.472 150.327 47.2985 150.327 47.0903C150.327 46.8821 150.501 46.7086 150.709 46.7086C150.917 46.7086 151.091 46.8821 151.091 47.0903Z" fill="#D1D4EB"/>
<path d="M144.359 60.6227L141.722 71.9355C141.722 71.9355 144.741 75.9262 148.072 76.3773C151.404 76.8284 155.256 74.7463 155.256 74.7463L152.618 61.9761C152.618 61.9761 147.413 62.7395 145.539 61.4209L144.394 60.6227H144.359Z" fill="#E85C91"/>
<path d="M138.772 88.3163C138.876 88.3857 138.98 88.4551 139.05 88.5939C139.154 88.7674 139.154 89.0103 139.154 89.2185C139.05 91.023 138.703 92.7928 138.113 94.4932C138.078 94.5626 138.043 94.6667 138.009 94.7361C137.835 94.979 137.453 95.0484 137.176 94.8749C136.898 94.7361 136.759 94.4238 136.69 94.1461C136.621 93.8338 136.69 93.5215 136.725 93.2439C136.794 92.8275 136.829 92.4458 136.863 92.0293C136.898 91.3006 136.863 90.5719 136.968 89.8431C137.037 89.3226 137.21 88.7674 137.523 88.351C137.905 87.8304 138.321 88.0387 138.807 88.3857L138.772 88.3163Z" fill="#433F74"/>
<path d="M149.008 92.7227C150.361 93.5902 152.131 93.7984 153.658 93.2432C153.762 93.2085 153.901 93.1391 153.97 93.035C154.04 92.9309 153.936 92.7574 153.832 92.7574C154.352 92.688 154.942 92.688 155.463 92.7227C155.636 92.7227 155.81 92.7574 155.948 92.8615C156.087 92.9656 156.157 93.1391 156.087 93.2779C156.052 93.382 155.948 93.4167 155.879 93.4514C155.532 93.6596 155.15 93.7984 154.734 93.9372C154.109 94.1107 153.45 94.2148 152.825 94.2842C152.617 94.3189 152.409 94.3536 152.201 94.3536C151.229 94.4924 150.257 94.5966 149.32 94.423C149.251 94.423 149.182 94.3883 149.147 94.3536C149.112 94.3189 149.077 94.2495 149.077 94.1801C149.008 93.729 149.043 93.2085 149.043 92.7227H149.008Z" fill="#433F74"/>
<path d="M132.872 34.1811L136.828 126.973L105.84 146.476L42.8214 106.465L47.2979 8.5019L59.3047 10.9657L67.8066 0L132.872 34.1811Z" fill="#20C1F3"/>
<path d="M132.872 34.1794L123.433 45.9086L108.372 42.716L105.839 146.474L136.828 126.972L132.872 34.1794Z" fill="#A5EAFF"/>
<path d="M108.373 42.7175L47.2979 8.50171L42.8214 106.464L105.84 146.475L108.373 42.7175Z" fill="#E2F8FF"/>
<path d="M81.514 36.9906C81.6528 37.9622 82.208 38.691 82.7632 38.6216C83.3185 38.5522 83.6655 37.6846 83.5267 36.713C83.3879 35.7413 82.8326 35.0126 82.2774 35.082C81.7222 35.1514 81.3752 36.0189 81.514 36.9906Z" fill="#6FD5F4"/>
<path d="M65.0305 26.4086C65.1693 27.3802 65.7245 28.1089 66.2797 28.0395C66.835 27.9701 67.182 27.1026 67.0432 26.1309C66.9044 25.1593 66.3491 24.4306 65.7939 24.5C65.2387 24.5694 64.8917 25.4369 65.0305 26.4086Z" fill="#6FD5F4"/>
<path d="M105.839 146.475L120.865 120.969L136.828 126.973L131.969 130.027L131.761 130.165L120.379 137.314L120.136 137.453L108.754 144.636L108.546 144.775L105.839 146.475Z" fill="#91E5FF"/>
<path d="M73.4629 56.3884C74.4692 56.4231 75.4409 56.1108 76.3778 55.5209C81.3748 52.2589 82.9017 40.3563 83.214 37.2331C83.2487 36.8167 82.9711 36.4697 82.5547 36.435C82.173 36.4003 81.826 36.6779 81.7913 37.0596C81.4789 40.0092 80.0562 51.3914 75.6144 54.3063C74.5386 55.0004 73.3935 55.1045 72.1095 54.6533C65.3774 52.2936 65.8632 34.2488 66.6961 26.6144C66.7308 26.2327 66.4531 25.8857 66.0714 25.8163C65.6897 25.7816 65.308 26.0592 65.2733 26.4409C64.8222 30.8133 62.9136 52.9183 71.6237 55.972C72.2483 56.2149 72.9076 56.319 73.4976 56.319L73.4629 56.3884Z" fill="#20C1F3"/>
<path d="M67.8062 0V19.9881L108.372 42.7177L123.433 45.9102L132.872 34.1811L67.8062 0Z" fill="#6FD5F4"/>
<path d="M57.9174 115.21V75.6849L84.7418 91.3006V132.179L57.9174 115.21Z" fill="#20C1F3"/>
<path d="M58.3329 115.21V75.6849L68.1187 81.3759V121.387L58.3329 115.21Z" fill="#20C1F3"/>
<path d="M68.1192 121.388L67.6681 121.561V81.2377H68.1539L67.911 82.3482L68.1192 121.388Z" fill="#20C1F3"/>
<path d="M57.9174 115.21V75.6849L67.6685 81.3759V121.387L57.9174 115.21Z" fill="#6FD5F4"/>
<path d="M74.99 126.002V85.6436L84.7758 91.3346L84.7411 132.178L74.99 126.002Z" fill="#6FD5F4"/>
<path d="M84.7419 132.177L57.9176 115.208V75.6831L84.7419 91.2988V132.143V132.177ZM57.0153 74.1562V115.694L85.6095 133.774V90.813L57.0153 74.1562Z" fill="#20C1F3"/>
<path d="M57.9174 113.37L67.6685 105.319V103.306L57.9174 111.392V113.37Z" fill="#A7A6D2"/>
<path d="M57.9174 101.571L67.6685 93.5202V92.8608L57.9174 100.912V101.571Z" fill="#20C1F3"/>
<path d="M57.9174 98.3453L67.6685 90.2946V88.2819L57.9174 96.3326V98.3453Z" fill="#20C1F3"/>
<path d="M57.9174 85.3305L64.7536 79.6741L63.3308 78.8413L57.9174 83.3525V85.3305Z" fill="#20C1F3"/>
<path d="M74.99 119.616L84.7411 111.843V109.83L74.99 117.638V119.616Z" fill="#20C1F3"/>
<path d="M74.99 111.739L84.7411 103.618V102.959L74.99 111.079V111.739Z" fill="#20C1F3"/>
<path d="M74.99 97.2677L83.249 90.4315L81.8262 89.6333L74.99 95.2897V97.2677Z" fill="#20C1F3"/>
<path d="M48.0277 57.8822L40.8792 64.6491L44.4534 66.6965L51.602 59.9296L48.0277 57.8822Z" fill="#E85C91"/>
<path d="M51.6008 59.9282L44.4523 66.695L48.0265 68.7424L55.1751 61.9756L51.6008 59.9282Z" fill="#FEFEFE"/>
<path d="M55.1755 61.9783L48.027 68.7451L51.6013 70.7925L58.7498 64.0257L55.1755 61.9783Z" fill="#E85C91"/>
<path d="M58.7503 64.0243L51.6018 70.7911L55.176 72.8385L62.3246 66.0717L58.7503 64.0243Z" fill="#FEFEFE"/>
<path d="M62.3234 66.0703L55.1749 72.8371L58.7491 74.8845L65.8977 68.1177L62.3234 66.0703Z" fill="#E85C91"/>
<path d="M65.8986 68.1195L58.75 74.8863L62.3243 76.9337L69.4728 70.1669L65.8986 68.1195Z" fill="#FEFEFE"/>
<path d="M69.4733 70.1663L62.3248 76.9331L65.899 78.9805L73.0476 72.2137L69.4733 70.1663Z" fill="#E85C91"/>
<path d="M73.0464 72.2123L65.8979 78.9791L69.4721 81.0265L76.6207 74.2597L73.0464 72.2123Z" fill="#FEFEFE"/>
<path d="M76.6212 74.2615L69.4726 81.0284L73.0469 83.0758L80.1954 76.3089L76.6212 74.2615Z" fill="#E85C91"/>
<path d="M80.1963 76.3083L73.0478 83.0751L76.622 85.1225L83.7706 78.3557L80.1963 76.3083Z" fill="#FEFEFE"/>
<path d="M83.7694 78.3576L76.6209 85.1244L80.1951 87.1718L87.3437 80.405L83.7694 78.3576Z" fill="#E85C91"/>
<path d="M87.3442 80.4036L80.1956 87.1704L83.7699 89.2178L90.9184 82.451L87.3442 80.4036Z" fill="#FEFEFE"/>
<path d="M90.9173 82.4495L83.7687 89.2163L87.343 91.2637L94.4915 84.4969L90.9173 82.4495Z" fill="#E85C91"/>
<path d="M94.492 84.4996L87.3435 91.2664L90.9178 93.3138L98.0663 86.547L94.492 84.4996Z" fill="#FEFEFE"/>
<path d="M98.0668 86.5456L90.9183 93.3124L94.4925 95.3598L101.641 88.593L98.0668 86.5456Z" fill="#E85C91"/>
<path d="M101.64 88.5916L94.4913 95.3584L98.0656 97.4058L105.179 90.639L101.64 88.5916Z" fill="#FEFEFE"/>
<path d="M40.8792 64.6502C40.8792 64.6502 40.9833 66.5241 42.2672 67.2875C43.7941 68.1898 44.4534 66.6976 44.4534 66.6976L40.8792 64.6502Z" fill="#DC457E"/>
<path d="M44.4523 66.6969C44.4523 66.6969 44.5564 68.5708 45.8403 69.3343C47.3672 70.2365 48.0265 68.7443 48.0265 68.7443L44.4523 66.6969Z" fill="#BBCDEA"/>
<path d="M48.027 68.7086C48.027 68.7086 48.1311 70.5825 49.4151 71.3459C50.9419 72.2482 51.6013 70.756 51.6013 70.756L48.027 68.7086Z" fill="#DC457E"/>
<path d="M51.6018 70.7553C51.6018 70.7553 51.7059 72.6292 52.9898 73.3927C54.5167 74.2949 55.176 72.8027 55.176 72.8027L51.6018 70.7553Z" fill="#BBCDEA"/>
<path d="M55.1749 72.8047C55.1749 72.8047 55.279 74.6786 56.5629 75.442C58.0898 76.3443 58.7491 74.8521 58.7491 74.8521L55.1749 72.8047Z" fill="#DC457E"/>
<path d="M58.7141 74.8506C58.7141 74.8506 58.8182 76.7245 60.1021 77.488C61.629 78.3902 62.2883 76.898 62.2883 76.898L58.7141 74.8506Z" fill="#BBCDEA"/>
<path d="M62.2888 76.8967C62.2888 76.8967 62.3929 78.7705 63.6769 79.534C65.2038 80.4362 65.8631 78.9441 65.8631 78.9441L62.2888 76.8967Z" fill="#DC457E"/>
<path d="M65.864 78.9467C65.864 78.9467 65.9681 80.8206 67.252 81.584C68.7789 82.4863 69.4382 80.9941 69.4382 80.9941L65.864 78.9467Z" fill="#BBCDEA"/>
<path d="M69.4371 80.9584C69.4371 80.9584 69.5412 82.8323 70.8251 83.5957C72.352 84.498 73.0113 83.0058 73.0113 83.0058L69.4371 80.9584Z" fill="#DC457E"/>
<path d="M73.0118 83.0051C73.0118 83.0051 73.1159 84.8789 74.3999 85.6424C75.9268 86.5446 76.5861 85.0525 76.5861 85.0525L73.0118 83.0051Z" fill="#BBCDEA"/>
<path d="M76.5865 85.0544C76.5865 85.0544 76.6907 86.9283 77.9746 87.6917C79.5015 88.594 80.1608 87.1018 80.1608 87.1018L76.5865 85.0544Z" fill="#DC457E"/>
<path d="M80.1597 87.1004C80.1597 87.1004 80.2638 88.9743 81.5477 89.7378C83.0746 90.64 83.7339 89.1478 83.7339 89.1478L80.1597 87.1004Z" fill="#BBCDEA"/>
<path d="M83.7348 89.1464C83.7348 89.1464 83.8389 91.0203 85.1229 91.7837C86.6497 92.6859 87.3091 91.1938 87.3091 91.1938L83.7348 89.1464Z" fill="#DC457E"/>
<path d="M87.3096 91.1621C87.3096 91.1621 87.4137 93.036 88.6976 93.7994C90.2245 94.7017 90.8839 93.2095 90.8839 93.2095L87.3096 91.1621Z" fill="#BBCDEA"/>
<path d="M90.8827 93.2081C90.8827 93.2081 90.9868 95.082 92.2708 95.8454C93.7977 96.7477 94.457 95.2555 94.457 95.2555L90.8827 93.2081Z" fill="#DC457E"/>
<path d="M94.4574 95.2549C94.4574 95.2549 94.5615 97.1288 95.8455 97.8922C97.3724 98.7945 98.0317 97.3023 98.0317 97.3023L94.4574 95.2549Z" fill="#BBCDEA"/>
<path d="M47.6098 120.312H47.5404C47.471 120.277 47.471 120.208 47.5057 120.173L49.553 116.494C49.5877 116.425 49.6571 116.425 49.6918 116.46C49.7612 116.494 49.7612 116.564 49.7265 116.599L47.6792 120.277L47.5751 120.346L47.6098 120.312Z" fill="#433F74"/>
<path d="M50.8731 117.153L45.5291 120.241L44.7656 129.09L47.9235 131.068L54.3086 127.008L53.8574 117.5L52.6429 117.743L51.7753 116.632L50.8731 117.153Z" fill="#6470B3"/>
<path d="M45.5291 120.241L46.4313 122.011L48.0276 121.109L47.9235 131.068L44.7656 129.09L45.5291 120.241Z" fill="#E6E6F3"/>
<path d="M48.0273 121.11L53.8572 117.501L54.3083 127.009L47.9232 131.069L48.0273 121.11Z" fill="#D1D4EB"/>
<path d="M50.4214 121.595C50.3867 121.838 50.2479 122.011 50.1091 121.977C49.9703 121.942 49.9009 121.734 49.9356 121.525C49.9703 121.283 50.1091 121.109 50.2479 121.144C50.3867 121.178 50.4561 121.387 50.4214 121.595Z" fill="#433F74"/>
<path d="M52.3297 120.379C52.295 120.622 52.1562 120.795 52.0174 120.761C51.8786 120.726 51.8092 120.518 51.8439 120.31C51.8786 120.067 52.0174 119.893 52.1562 119.928C52.295 119.963 52.3644 120.171 52.3297 120.379Z" fill="#433F74"/>
<path d="M44.7656 129.092L46.3966 128.467L47.9235 131.07L44.7656 129.092Z" fill="#D1D4EB"/>
<path d="M47.5421 114.516C47.5421 114.516 48.3402 117.258 49.7283 117.293C49.5895 116.599 49.7283 115.072 49.7283 115.072C49.7283 115.072 49.5895 115.384 49.3812 114.516C49.173 113.649 48.6525 112.781 48.6525 112.781L47.5421 114.516Z" fill="#E482B4"/>
<path d="M50.1791 121.664C50.1097 121.664 50.075 121.629 50.075 121.56V115.487C50.075 115.418 50.1097 115.383 50.1791 115.383C50.2138 115.383 50.2833 115.418 50.318 115.452L52.2265 120.345C52.2612 120.415 52.2265 120.484 52.1571 120.484C52.0877 120.519 52.053 120.484 52.0183 120.415L50.318 116.042V121.56C50.318 121.629 50.2833 121.664 50.2138 121.664H50.1791Z" fill="#433F74"/>
<path d="M50.837 116.18C50.837 116.804 50.3512 117.29 49.7266 117.29C49.1019 117.29 48.6161 116.804 48.6161 116.18C48.6161 115.555 49.1019 115.069 49.7266 115.069C50.3512 115.069 50.837 115.555 50.837 116.18Z" fill="#E482B4"/>
<path d="M63.1226 112.156L64.3371 107.61C64.3718 107.541 64.3024 107.472 64.2677 107.472C64.1983 107.437 64.1289 107.506 64.1289 107.541L62.9144 112.087C62.8797 112.156 62.9491 112.226 62.9838 112.226C63.0532 112.26 63.1226 112.191 63.1226 112.156Z" fill="#564F93"/>
<path d="M50.282 121.594C50.2126 121.594 50.1779 121.559 50.1779 121.49L50.0391 116.562C50.0391 116.493 50.0738 116.458 50.1432 116.458C50.2126 116.458 50.2473 116.493 50.2473 116.562L50.3861 121.49C50.3861 121.559 50.3514 121.594 50.282 121.594Z" fill="#433F74"/>
<path d="M68.9167 100.737C68.7085 101.327 68.0492 101.64 67.4592 101.431C66.8693 101.223 66.557 100.564 66.7652 99.9739C66.9734 99.3839 67.6327 99.0716 68.2227 99.2798C68.8126 99.488 69.1249 100.147 68.9167 100.737Z" fill="#E482B4"/>
<path d="M52.7457 111.185C52.7457 111.185 51.4617 121.075 51.3576 125.864C51.2535 130.652 49.3796 130.756 48.0263 133.845C46.6729 136.933 45.8054 140.091 45.8054 140.091L46.5341 140.508C46.5341 140.508 52.8845 132.734 53.6479 131.971C54.4114 131.208 56.9099 118.194 56.9099 118.194L52.7804 111.254L52.7457 111.185Z" fill="#454F9F"/>
<path d="M46.4993 140.472C46.4993 140.472 46.187 141.374 45.9441 142.034C45.7011 142.728 45.9441 144.255 45.5623 144.879C45.1806 145.504 44.0702 144.983 44.1396 144.428C44.1743 143.873 44.4866 141.825 44.6254 141.478C44.7642 141.131 45.7705 140.056 45.7705 140.056L46.4993 140.472Z" fill="#494582"/>
<path d="M65.7934 109.24L61.0046 112.502L60.8658 120.796L63.9196 122.461L69.6453 118.228L68.6043 109.379L67.4938 109.691L66.6263 108.72L65.7934 109.24Z" fill="#B03F6D"/>
<path d="M61.1433 94.4926C61.1433 96.4012 59.5817 97.9627 57.6731 97.9627C55.7645 97.9627 54.203 96.4012 54.203 94.4926C54.203 92.584 55.7645 91.0224 57.6731 91.0224C59.5817 91.0224 61.1433 92.584 61.1433 94.4926Z" fill="#E482B4"/>
<path d="M59.132 141.166C59.132 141.166 59.2014 142.589 59.2014 142.728C59.2014 142.866 59.826 143.144 60.6936 142.971C61.5611 142.797 64.0596 141.964 64.476 141.548C64.8925 141.131 63.5391 141.201 62.7063 141.305C61.8734 141.374 60.2424 141.201 60.2424 141.201H59.0973L59.132 141.166Z" fill="#494582"/>
<path d="M52.2946 114.76L56.1118 117.883C56.1118 117.883 58.3327 125.552 58.5756 127.391C58.8186 129.23 59.1656 139.085 59.1309 141.168C59.1309 142.452 60.0331 141.827 60.3801 141.584C60.7271 141.341 62.2193 128.883 62.2193 125.621C62.2193 122.359 60.7618 110.977 60.7618 110.977L52.7111 111.012L52.2946 114.76Z" fill="#4D59A5"/>
<path d="M67.2864 100.841C67.2864 100.841 64.1632 107.331 63.8509 108.476C63.6427 109.343 65.2737 110.592 65.8983 109.933C66.5577 109.239 68.258 101.154 68.258 101.154L67.2864 100.876V100.841Z" fill="#E482B4"/>
<path d="M60.3119 107.055C60.4507 104.244 60.8671 101.537 60.2425 101.017C58.438 99.5248 55.4189 98.449 55.4189 98.449C55.4189 98.449 52.6428 97.1304 51.6018 98.449C50.5607 99.7677 47.1947 105.389 46.8476 107.229C46.6741 108.2 46.7782 109.796 46.9517 111.289C47.4029 111.566 48.6868 112.226 49.4156 111.879C49.4503 110.144 49.485 108.166 49.5544 107.923C49.6585 107.471 52.2611 102.37 52.2611 102.37C52.2611 102.37 52.9551 105.146 53.4062 106.188C53.8574 107.229 52.8163 110.213 52.6081 111.046C52.3652 111.844 54.4473 112.677 56.1824 112.781C57.9174 112.885 61.1447 111.497 61.1447 111.497C61.1447 111.497 60.2078 108.929 60.3119 107.055Z" fill="#EAC6A5"/>
<path d="M49.3804 114.514C49.3804 114.514 49.3804 113.3 49.4151 111.877C48.6864 112.224 47.4024 111.565 46.9513 111.287C47.1248 112.675 47.3677 113.924 47.5412 114.479C47.8882 115.625 49.3804 114.479 49.3804 114.479V114.514Z" fill="#E482B4"/>
<path d="M60.207 101.053C59.6864 100.706 59.7905 101.747 59.1659 101.4C58.6454 101.608 58.4025 101.539 58.4025 101.539L58.0208 103.968C58.0208 103.968 57.3267 109.451 57.7084 112.643C59.3394 112.296 61.1439 111.533 61.1439 111.533C61.1439 111.533 61.0051 110.422 60.5887 109C59.7905 106.189 60.9704 101.573 60.207 101.053Z" fill="#DDB592"/>
<path d="M55.4878 95.3946L54.9673 99.1076C55.349 99.9405 56.1819 100.461 57.0841 100.426H57.5005L58.3334 96.505L55.4878 95.3946Z" fill="#E482B4"/>
<path d="M59.9637 95.4981C59.9637 94.9775 59.2697 94.6305 58.8533 94.9428C58.5757 95.1511 58.5063 95.6022 58.6104 95.9492C58.7145 96.2962 58.9574 96.6085 59.2003 96.8861C58.0899 97.6149 56.91 98.2048 55.6954 98.6559C55.1749 97.8925 54.6544 97.1637 54.1339 96.4003C53.891 96.0533 53.648 95.7063 53.5439 95.3246C53.301 94.4223 53.648 92.826 54.2727 92.132C55.1055 91.1257 56.2854 90.6745 57.5693 90.5704C58.5757 90.501 59.8249 91.1951 60.4843 91.9932C61.3518 93.0343 60.3802 94.4223 59.9637 95.5328V95.4981Z" fill="#564F93"/>
<path d="M65.9326 108.268C65.7243 107.817 65.4814 107.366 65.1691 106.984C64.4404 106.047 63.5034 105.284 62.3583 103.202C61.0396 100.807 59.4781 100.634 59.4781 100.634C56.806 100.911 57.3266 102.577 57.7777 103.861C58.0206 104.52 58.4717 105.076 59.0963 105.423C59.4781 105.631 59.8251 105.874 60.1374 106.186C61.9766 108.164 64.3016 110.558 65.0303 109.864L65.2038 109.795C65.8632 109.587 66.2102 108.858 65.8979 108.233L65.9326 108.268Z" fill="#EAC6A5"/>
<path d="M63.3988 113.128L68.6041 109.381L69.6451 118.23L63.9194 122.463L63.3988 113.128Z" fill="#E85C91"/>
<path d="M65.1352 107.193L64.6841 114.064C64.6841 114.133 64.7188 114.203 64.7882 114.203C64.8576 114.203 64.927 114.168 64.927 114.098L65.3781 107.228C65.3781 107.158 65.3434 107.089 65.274 107.089C65.2046 107.089 65.1352 107.123 65.1352 107.193Z" fill="#564F93"/>
<path d="M65.1344 107.192L67.4941 112.501C67.5288 112.57 67.5982 112.605 67.6676 112.57C67.737 112.536 67.7717 112.466 67.737 112.397L65.3773 107.088C65.3426 107.018 65.2732 106.983 65.2038 107.018C65.1344 107.053 65.0997 107.122 65.1344 107.192Z" fill="#564F93"/>
<path d="M61.0046 112.503L61.9763 114.099L63.399 113.127L63.9196 122.462L60.8658 120.796L61.0046 112.503Z" fill="#F06FA6"/>
<path d="M57.7434 91.7866C57.7434 93.2094 56.5635 94.3892 55.1408 94.3892C53.718 94.3892 52.5381 93.2094 52.5381 91.7866C52.5381 90.3638 53.718 89.184 55.1408 89.184C56.5635 89.184 57.7434 90.3638 57.7434 91.7866Z" fill="#EAC6A5"/>
<path d="M60.8658 120.795L62.3233 120.136L63.9196 122.461L60.8658 120.795Z" fill="#E85C91"/>
<path d="M57.5012 91.3346C57.5012 92.8961 56.2519 94.1454 54.6904 94.1454C53.1288 94.1454 51.8795 92.8961 51.8795 91.3346C51.8795 89.773 53.1288 88.5237 54.6904 88.5237C56.2519 88.5237 57.5012 89.773 57.5012 91.3346Z" fill="#564F93"/>
<path d="M132.421 116.631L117.534 125.307L115.382 149.98L124.196 155.497L142.068 144.15L140.784 117.638L137.383 118.332L134.954 115.243L132.421 116.631Z" fill="#6FD5F4"/>
<path d="M117.534 125.307L120.067 130.27L124.474 127.736L124.196 155.498L115.382 149.98L117.534 125.307Z" fill="#A5EAFF"/>
<path d="M124.474 127.738L140.784 117.64L142.068 144.152L124.197 155.499L124.474 127.738Z" fill="#E2F8FF"/>
<path d="M131.172 129.021C131.068 129.68 130.687 130.166 130.305 130.096C129.923 130.027 129.715 129.472 129.819 128.812C129.923 128.153 130.305 127.667 130.687 127.737C131.068 127.806 131.276 128.361 131.172 129.021Z" fill="#20C1F3"/>
<path d="M136.552 125.725C136.448 126.385 136.066 126.87 135.684 126.801C135.302 126.732 135.094 126.176 135.198 125.517C135.302 124.858 135.684 124.372 136.066 124.441C136.448 124.511 136.656 125.066 136.552 125.725Z" fill="#20C1F3"/>
<path d="M115.382 149.982L119.928 148.281L124.196 155.499L115.382 149.982Z" fill="#91E5FF"/>
<path d="M134.954 115.243V121.247L124.474 127.736L120.067 130.269L117.534 125.307L133.878 115.833L134.954 115.243Z" fill="#20C1F3"/>
<path d="M133.323 135.371C133.01 135.371 132.698 135.267 132.386 135.093C130.581 133.879 130.304 129.159 130.269 128.951L130.72 128.916C130.72 128.951 131.032 133.601 132.629 134.712C132.976 134.955 133.323 134.989 133.739 134.85C135.995 134.087 135.856 127.979 135.613 125.689L136.064 125.654C136.099 126.001 136.932 134.295 133.878 135.302C133.67 135.371 133.462 135.406 133.288 135.406L133.323 135.371Z" fill="#20C1F3"/>
<path d="M145.747 123.676L130.86 132.317L128.744 156.989L137.523 162.542L155.394 151.194L154.11 124.682L150.71 125.376L148.315 122.253L145.747 123.676Z" fill="#6FD5F4"/>
<path d="M130.86 132.317L133.428 137.279L137.801 134.746L137.523 162.542L128.744 156.99L130.86 132.317Z" fill="#A5EAFF"/>
<path d="M137.8 134.747L154.11 124.684L155.394 151.196L137.522 162.543L137.8 134.747Z" fill="#E2F8FF"/>
<path d="M144.532 136.065C144.428 136.724 144.046 137.21 143.665 137.14C143.283 137.071 143.075 136.516 143.179 135.856C143.283 135.197 143.665 134.711 144.046 134.781C144.428 134.85 144.636 135.405 144.532 136.065Z" fill="#20C1F3"/>
<path d="M149.875 132.769C149.771 133.429 149.39 133.914 149.008 133.845C148.626 133.776 148.418 133.22 148.522 132.561C148.626 131.902 149.008 131.416 149.39 131.485C149.771 131.555 149.98 132.11 149.875 132.769Z" fill="#20C1F3"/>
<path d="M128.744 156.991L133.255 155.325L137.523 162.543L128.744 156.991Z" fill="#91E5FF"/>
<path d="M148.315 122.253V128.256L137.8 134.746L133.428 137.279L130.86 132.317L147.204 122.878L148.315 122.253Z" fill="#20C1F3"/>
<path d="M146.648 142.415C146.336 142.415 146.024 142.311 145.711 142.137C143.907 140.923 143.629 136.203 143.594 135.995L144.046 135.96C144.046 135.995 144.358 140.645 145.954 141.756C146.301 141.999 146.648 142.033 147.065 141.894C149.32 141.131 149.181 135.024 148.938 132.733L149.39 132.699C149.424 133.046 150.257 141.339 147.203 142.346C146.995 142.415 146.787 142.45 146.613 142.45L146.648 142.415Z" fill="#20C1F3"/>
<path d="M20.8208 134.503H20.7514C20.682 134.469 20.682 134.399 20.7167 134.33L22.9723 130.27C23.007 130.2 23.0764 130.2 23.1458 130.235C23.2152 130.27 23.2152 130.339 23.1805 130.409L20.9249 134.469L20.8208 134.538V134.503Z" fill="#433F74"/>
<path d="M3.85201 128.603H3.78261C3.71321 128.568 3.71321 128.499 3.74791 128.43L6.00351 124.37C6.03821 124.3 6.10762 124.3 6.17702 124.335C6.24642 124.37 6.24642 124.439 6.21172 124.508L3.95612 128.568L3.85201 128.638V128.603Z" fill="#433F74"/>
<path d="M7.46132 125.1L1.56204 128.536L0.694504 138.321L4.19937 140.508L11.2785 135.996L10.758 125.517L9.40461 125.794L8.46767 124.545L7.46132 125.1Z" fill="#E9BAA6"/>
<path d="M1.56205 128.535L2.56839 130.513L4.30348 129.506L4.19937 140.507L0.694504 138.321L1.56205 128.535Z" fill="#FBCDBF"/>
<path d="M4.30352 129.505L10.758 125.515L11.2785 135.995L4.19942 140.506L4.30352 129.505Z" fill="#F0A98D"/>
<path d="M6.97483 130.025C6.94012 130.303 6.76661 130.477 6.62781 130.442C6.489 130.407 6.3849 130.199 6.4196 129.921C6.4543 129.644 6.62781 129.47 6.76661 129.505C6.90542 129.54 7.00953 129.748 6.97483 130.025Z" fill="#433F74"/>
<path d="M9.09231 128.708C9.05761 128.986 8.8841 129.159 8.7453 129.125C8.60649 129.09 8.50239 128.882 8.53709 128.604C8.57179 128.327 8.7453 128.153 8.8841 128.188C9.02291 128.222 9.12701 128.431 9.09231 128.708Z" fill="#433F74"/>
<path d="M0.694504 138.319L2.49899 137.625L4.19937 140.505L0.694504 138.319Z" fill="#F0A98D"/>
<path d="M6.69755 130.097C6.62815 130.097 6.55875 130.027 6.55875 129.958L6.59345 123.226C6.59345 123.156 6.62815 123.122 6.69755 123.122C6.76696 123.122 6.80166 123.156 6.83636 123.191L8.95316 128.604C8.98786 128.674 8.95316 128.743 8.88376 128.778C8.81436 128.813 8.74495 128.778 8.71025 128.709L6.83636 123.885V129.958C6.83636 130.027 6.76696 130.097 6.69755 130.097Z" fill="#433F74"/>
<path d="M6.80082 130.028C6.73142 130.028 6.69672 129.958 6.66201 129.924L6.52321 124.475C6.52321 124.406 6.55791 124.337 6.62731 124.337C6.69672 124.337 6.73142 124.406 6.76612 124.441L6.90492 129.889C6.90492 129.958 6.83552 130.028 6.80082 130.028Z" fill="#433F74"/>
<path d="M10.0294 119.233C10.0294 119.233 7.84316 128.325 6.94091 133.218C6.03867 138.076 7.46144 150.742 7.46144 150.742C7.46144 150.742 7.91256 151.506 8.98831 151.506C10.0641 151.506 11.2092 136.445 11.2092 136.445C11.2092 136.445 12.632 125.375 13.3954 125.514C13.5689 125.549 14.957 126.069 15.5816 125.965C17.7331 125.549 20.8216 123.675 20.7175 121.419C20.5786 118.539 18.2883 118.365 18.2883 118.365C18.2883 118.365 14.3324 118.053 13.8812 118.227C13.4301 118.365 10.0641 119.302 10.0641 119.302L10.0294 119.233Z" fill="#4D59A5"/>
<path d="M15.0958 122.53C15.0958 122.53 14.3671 132.489 15.4428 134.467C16.5186 136.445 22.4526 142.448 22.4526 142.448C22.4526 142.448 24.1876 142.691 23.7365 141.442C23.2854 140.227 19.1559 132.905 19.1559 132.905L20.6828 121.35L17.3167 117.255L15.0958 122.53Z" fill="#4D59A5"/>
<path d="M7.565 104.659C7.565 104.659 8.46724 102.993 9.85531 102.993C11.2434 102.993 20.1964 104.971 20.7863 105.596C21.4109 106.221 25.7139 114.376 25.7139 117.117C25.7139 119.858 24.8117 129.297 24.8117 129.297C24.8117 129.297 23.146 129.61 22.6949 128.846C22.2438 128.083 21.7927 118.644 21.7927 118.644C21.7927 118.644 19.3636 109.83 19.3636 110.281C19.3636 110.732 7.63441 104.659 7.63441 104.659H7.565Z" fill="#E6E6F3"/>
<path d="M10.1683 104.625L19.1213 107.089L20.3705 109.345C20.3705 109.345 21.134 119.998 20.6829 121.386C20.2317 122.74 15.2 123.364 13.3608 123.052C11.5216 122.74 9.99476 119.235 9.99476 119.235L9.05782 104.035L10.1336 104.625H10.1683Z" fill="#E6E6F3"/>
<path d="M7.56476 104.66C7.56476 104.66 5.03154 109.241 4.89273 112.433C4.75393 115.626 5.48266 122.601 5.48266 122.601C5.48266 122.601 6.3849 123.226 7.32185 122.74C8.22409 122.289 7.94648 113.752 8.3976 112.676C8.84872 111.601 11.7637 104.903 11.7637 104.903C11.7637 104.903 10.6879 102.786 7.63416 104.625L7.56476 104.66Z" fill="#E6E6F3"/>
<path d="M16.0666 100.078C16.0666 102.056 14.4703 103.653 12.4924 103.653C10.5144 103.653 8.91809 102.056 8.91809 100.078C8.91809 98.1005 10.5144 96.5042 12.4924 96.5042C14.4703 96.5042 16.0666 98.1005 16.0666 100.078Z" fill="#B66193"/>
<path d="M11.3133 101.19L12.5279 104.869C13.2566 105.459 14.263 105.563 15.0958 105.146L15.4775 104.938L14.4712 100.947L11.3133 101.225V101.19Z" fill="#B66193"/>
<path d="M22.3138 142.277C22.3138 142.277 22.7649 144.151 22.6261 144.498C22.4873 144.845 21.9321 146.58 22.869 146.754C23.7712 146.927 24.3612 146.06 24.4653 145.157C24.5694 144.255 23.7365 141.479 23.7365 141.479L22.3138 142.277Z" fill="#564F93"/>
<path d="M8.64079 147.688C8.18967 147.619 7.63445 147.48 7.11392 147.376C7.28743 149.354 7.42624 150.707 7.42624 150.707C7.53034 151.956 7.94676 151.852 8.98781 151.54C9.30012 151.436 9.64714 149.909 9.99416 147.758C9.50833 147.758 9.02251 147.758 8.64079 147.688Z" fill="#B66193"/>
<path d="M6.83638 147.723C6.83638 147.723 7.87743 148.764 10.0289 148.521C10.2718 148.452 10.5495 147.931 10.5495 147.445C10.5495 147.237 10.5148 146.994 10.48 146.786C10.4106 146.508 10.0983 146.37 9.85542 146.508C9.4043 146.751 8.74497 147.064 8.12034 146.994C7.114 146.855 7.00989 145.745 7.00989 145.745H6.80168C6.48937 146.196 6.52407 146.682 6.66287 147.203C6.69758 147.307 6.73228 147.411 6.76698 147.48L6.87108 147.688L6.83638 147.723Z" fill="#D1D4EB"/>
<path d="M23.7354 141.479C23.6313 141.167 23.2842 140.508 22.8331 139.675C22.4514 140.23 22.035 140.716 21.9309 140.82C21.688 141.028 21.445 141.132 21.2021 141.202C21.9309 141.965 22.4514 142.486 22.4514 142.486C22.4514 142.486 24.1865 142.729 23.7354 141.479Z" fill="#B66193"/>
<path d="M20.2302 140.576L20.8895 141.547C20.8895 141.547 22.7634 142.415 23.2492 140.055L22.6593 138.841L22.4511 138.875C22.4511 138.875 22.5552 140.055 21.6876 140.263C20.8201 140.472 20.4037 140.333 20.4037 140.333L20.2649 140.576H20.2302Z" fill="#D1D4EB"/>
<path d="M9.19522 153.138C9.22992 152.479 9.29932 151.82 9.33402 151.195C9.33402 151.091 9.33402 150.987 9.29932 150.883C9.16051 151.022 8.98701 151.022 8.8135 151.056C8.36238 151.091 7.87655 151.056 7.42543 150.952C7.39073 151.646 6.90491 152.202 6.41909 152.722C5.93326 153.243 5.37804 153.728 5.10043 154.353C5.03102 154.457 4.99632 154.596 5.06572 154.735C5.13513 154.874 5.30864 154.908 5.48214 154.908C6.17618 154.908 6.87021 154.7 7.49484 154.353C8.11947 154.041 8.70939 153.555 9.22992 153.138H9.19522Z" fill="#564F93"/>
<path d="M16.4836 100.218C16.4836 100.981 16.1713 101.606 15.7549 101.606C15.3385 101.606 15.0262 100.981 15.0262 100.218C15.0262 99.4542 15.3385 98.8295 15.7549 98.8295C16.1713 98.8295 16.4836 99.4542 16.4836 100.218Z" fill="#B66193"/>
<path d="M12.4929 96.5042C10.9661 96.5042 9.6821 97.4412 9.16158 98.7598C9.7862 99.1415 10.7926 99.2456 11.4519 99.2804C11.7295 99.2804 14.2974 98.9333 14.1586 98.4822C14.2974 99.0374 14.5056 99.558 14.7832 100.078C14.7832 99.5233 15.1997 99.0374 15.7549 98.9333L15.859 98.8986C15.3732 97.5106 14.0545 96.5042 12.4929 96.5042Z" fill="#564F93"/>
<path d="M24.7759 129.366C24.7759 130.095 24.186 130.65 23.492 130.65C22.7632 130.65 22.208 130.06 22.208 129.366C22.208 128.637 22.7979 128.082 23.492 128.082C24.2207 128.082 24.7759 128.672 24.7759 129.366Z" fill="#B66193"/>
<path d="M7.80749 123.469C7.80749 124.198 7.21757 124.753 6.52354 124.753C5.7948 124.753 5.23958 124.163 5.23958 123.469C5.23958 122.74 5.82951 122.185 6.52354 122.185C7.25227 122.185 7.80749 122.775 7.80749 123.469Z" fill="#B66193"/>
<path d="M24.9159 131.483L19.0166 134.919L18.1838 144.67L21.654 146.856L28.7331 142.38L28.2126 131.865L26.8592 132.143L25.9223 130.928L24.9159 131.483Z" fill="#7080BD"/>
<path d="M19.0166 134.919L20.023 136.862L21.7581 135.856L21.654 146.856L18.1838 144.67L19.0166 134.919Z" fill="#E6E6F3"/>
<path d="M21.7573 135.855L28.2118 131.864L28.7323 142.379L21.6532 146.855L21.7573 135.855Z" fill="#D1D4EB"/>
<path d="M24.4302 136.379C24.3955 136.657 24.222 136.83 24.0832 136.796C23.9444 136.761 23.8403 136.553 23.875 136.275C23.9097 135.997 24.0832 135.824 24.222 135.859C24.3608 135.893 24.4649 136.101 24.4302 136.379Z" fill="#433F74"/>
<path d="M26.5461 135.092C26.5114 135.37 26.3379 135.543 26.1991 135.509C26.0602 135.474 25.9561 135.266 25.9908 134.988C26.0255 134.71 26.1991 134.537 26.3379 134.572C26.4767 134.606 26.5808 134.815 26.5461 135.092Z" fill="#433F74"/>
<path d="M18.1838 144.671L19.9536 144.012L21.654 146.857L18.1838 144.671Z" fill="#D1D4EB"/>
<path d="M24.1513 136.48C24.0819 136.48 24.0125 136.411 24.0125 136.342L24.0472 129.609C24.0472 129.54 24.0819 129.505 24.1513 129.505C24.2207 129.505 24.2554 129.54 24.2901 129.575L26.4069 134.988C26.4416 135.058 26.4069 135.127 26.3375 135.162C26.2681 135.196 26.1987 135.162 26.164 135.092L24.2901 130.269V136.342C24.2901 136.411 24.2207 136.48 24.1513 136.48Z" fill="#433F74"/>
<path d="M24.2562 136.412C24.1868 136.412 24.1521 136.342 24.1174 136.307L23.9786 130.859C23.9786 130.79 24.0133 130.72 24.0827 130.72C24.1521 130.72 24.1868 130.79 24.2215 130.825L24.3603 136.273C24.3603 136.342 24.3256 136.412 24.2562 136.412Z" fill="#433F74"/>
<path d="M59.9295 54.4807L60.45 53.9602L85.4699 68.4308V75.9263L84.9494 76.4122L59.9295 54.4807Z" fill="#20C1F3"/>
<path d="M72.2828 62.5998L70.9988 61.8363L72.2828 62.5998ZM72.2481 66.1393L71.9358 65.9311L72.2481 66.1393ZM69.6107 65.133L70.0966 65.4106L69.6107 65.133ZM65.7242 58.8173C65.5854 58.7826 65.4465 58.7826 65.3424 58.8173C65.4465 58.7826 65.5854 58.7826 65.7242 58.8173ZM67.0081 59.6154C66.7652 59.3725 66.5223 59.199 66.2447 59.0255C66.5223 59.1643 66.7652 59.3725 67.0081 59.6154ZM66.557 61.0729C66.4876 61.0035 66.4182 60.9688 66.3835 60.8994C66.2794 60.7953 66.1753 60.7259 66.1059 60.6218C65.9324 60.4483 65.7936 60.2748 65.7242 60.136C65.6895 60.0666 65.6548 59.9625 65.6548 59.8583C65.6548 59.9625 65.6895 60.0319 65.7242 60.136C65.7936 60.3095 65.9324 60.483 66.1059 60.6218C66.1753 60.6912 66.2794 60.7953 66.3835 60.8994C66.4529 60.9688 66.5223 61.0035 66.557 61.0729C66.6958 61.177 66.7999 61.3158 66.904 61.4546C66.7999 61.3158 66.6611 61.177 66.557 61.0729ZM66.557 62.6692C66.4876 62.7039 66.4182 62.7039 66.3141 62.6692C66.4182 62.7039 66.5223 62.7039 66.557 62.6692ZM65.8283 62.4263C65.8977 62.461 65.9671 62.5304 66.0365 62.5651C66.1059 62.5998 66.1753 62.6345 66.2447 62.6692C66.1753 62.6345 66.1059 62.5998 66.0365 62.5651C65.9671 62.5304 65.8977 62.461 65.8283 62.4263ZM68.7779 64.1961L68.9514 64.2655C69.0208 64.3002 69.0902 64.3002 69.0902 64.2655C69.0555 64.3002 69.0208 64.3002 68.9514 64.2655L68.7779 64.1961V64.6819V64.1961ZM68.8126 60.6218V61.1423V60.6218ZM69.7495 63.4673L71.2764 64.3349V65.4106C71.2764 65.48 71.2764 65.5147 71.2417 65.5494C71.207 65.5494 71.1723 65.5494 71.1376 65.5147C71.1723 65.5494 71.2417 65.5494 71.2417 65.5494C71.2764 65.5494 71.2764 65.48 71.2764 65.4106V64.3349L69.7495 63.4673ZM60.4495 53.9938L60.4148 61.4893L85.4694 75.9599L85.5041 68.4644L60.4495 53.9938Z" fill="#6FD5F4"/>
<path d="M79.0854 67.9457C79.6059 68.2581 79.9182 68.5357 79.9182 69.1603C79.9182 69.7155 79.6059 69.7155 79.1201 69.4379L78.7383 69.2297V67.7722L79.0507 67.9457H79.0854Z" fill="#20C1F3"/>
<path d="M74.7817 68.3966C75.4758 68.7783 75.6493 68.1537 75.6493 67.425C75.6493 66.8003 75.5105 65.8287 74.7817 65.4123C74.0877 65.0305 73.8795 65.6205 73.8795 66.3492C73.8795 67.0432 74.0183 67.9455 74.7817 68.3966ZM74.8164 64.7876C75.6146 65.2388 76.3433 66.2451 76.3433 67.8067C76.3433 69.2294 75.684 69.5418 74.747 69.0212C73.8101 68.466 73.1855 67.425 73.1855 66.0022C73.1855 64.4406 74.053 64.3712 74.8164 64.7876Z" fill="#E6E6F3"/>
<path d="M74.7822 65.4114C75.5109 65.8278 75.6497 66.7995 75.6497 67.4241C75.6497 68.1529 75.4415 68.7775 74.7822 68.3958C74.0188 67.9446 73.8799 67.0424 73.8799 66.3484C73.8799 65.6196 74.1229 64.995 74.7822 65.4114Z" fill="#20C1F3"/>
<path d="M65.6895 59.547C66.0365 59.7552 66.3835 60.0329 66.6958 60.3799V61.3168L66.1406 61.0392V60.6922C66.1406 60.5881 66.1406 60.5187 66.0365 60.4146C65.9324 60.3105 65.7936 60.2411 65.6895 60.1717C65.3772 59.9982 65.1342 59.9982 65.1342 60.3799C65.1342 60.7616 65.4466 61.0392 65.8283 61.4209C66.3141 61.8721 66.8346 62.4273 66.8346 63.2254C66.8346 64.0236 66.2794 64.1624 65.5507 63.746C65.1342 63.503 64.7872 63.2254 64.4749 62.8784V61.9068L65.0301 62.1844V62.5661C65.0301 62.6702 65.0301 62.7396 65.1342 62.8437C65.2383 62.9478 65.3772 63.0519 65.516 63.1213C65.863 63.3295 66.1753 63.3642 66.1753 62.9131C66.1753 62.5314 65.863 62.2538 65.4813 61.9068C64.9607 61.4209 64.4749 60.9004 64.4749 60.1023C64.4749 59.3388 64.9954 59.2 65.7242 59.6164L65.6895 59.547Z" fill="#E6E6F3"/>
<path d="M71.7625 63.0878V63.5736L71.589 63.5042C71.4849 63.4695 71.4502 63.4695 71.4502 63.6083V66.4538L71.7625 66.662V67.1826L70.4786 66.4191V65.9333L70.6521 66.0027C70.7562 66.0374 70.7909 66.0374 70.8256 65.8986V64.8228L69.2987 63.9553V65.2046L69.611 65.4128V65.9333L68.3271 65.1699V64.684L68.5006 64.7534C68.6047 64.7881 68.6741 64.7881 68.6741 64.684V61.8385L68.3618 61.6303V61.1098L69.6457 61.8732V62.359L69.4722 62.2896C69.3681 62.2549 69.2987 62.2549 69.2987 62.3937V63.3307L70.8256 64.1982V63.0531L70.5133 62.8449V62.3243L71.7972 63.0878H71.7625Z" fill="#E6E6F3"/>
<path d="M78.772 67.7367V69.1942L79.1537 69.4024C79.6048 69.68 79.9518 69.68 79.9518 69.1248C79.9518 68.5001 79.6395 68.2225 79.119 67.9102L78.8067 67.7367H78.772ZM79.2231 70.0617L78.772 69.7841V70.6864L79.2925 70.9987V71.5192L77.8003 70.6517V70.1658L77.9738 70.2352C78.0779 70.2699 78.1126 70.2699 78.1126 70.1658V67.3203L77.8003 67.1121V66.5916L79.3272 67.4591C80.1253 67.9102 80.6111 68.639 80.6111 69.4371C80.6111 70.374 80.0212 70.5128 79.2231 70.027V70.0617Z" fill="#E6E6F3"/>
<path d="M65.5519 63.7113C66.2807 64.1277 66.8359 64.0236 66.8359 63.1908C66.8359 62.3927 66.3154 61.8374 65.8295 61.3863C65.4131 61.0046 65.1008 60.727 65.1355 60.3453C65.1355 59.9635 65.3784 59.9635 65.6907 60.137C65.7948 60.2064 65.9336 60.2759 66.0377 60.38C66.1418 60.4841 66.1418 60.5188 66.1418 60.6576V61.0046L66.6971 61.2822V60.3453C66.3848 59.9982 66.0377 59.7206 65.6907 59.5124C64.962 59.096 64.4415 59.2348 64.4415 59.9982C64.4415 60.7964 64.9273 61.3169 65.4478 61.8027C65.8295 62.1497 66.1418 62.4274 66.1418 62.8091C66.1418 63.2602 65.8642 63.2255 65.4825 63.0173C65.3437 62.9479 65.2049 62.8438 65.1008 62.7397C64.9967 62.6356 64.9967 62.6009 64.9967 62.4621V62.0803L64.4415 61.8027V62.7744C64.7538 63.1214 65.1008 63.399 65.5172 63.6419L65.5519 63.7113ZM79.2244 70.0964C80.0225 70.5475 80.6124 70.4434 80.6124 69.5065C80.6124 68.6736 80.1266 67.9796 79.3285 67.5285L77.8016 66.6609V67.1815L78.1139 67.3897V70.2352C78.1139 70.374 78.0445 70.374 77.9751 70.3046L77.8016 70.2352V70.721L79.2938 71.5886V71.0681L78.7732 70.7557V69.8535L79.2244 70.1311V70.0964ZM74.7478 69.0207C75.6848 69.5759 76.3094 69.2289 76.3441 67.8061C76.3441 66.2445 75.6154 65.2729 74.8173 64.7871C74.0538 64.3706 73.221 64.4053 73.1863 66.0016C73.1863 67.3897 73.7762 68.4654 74.7478 69.0207ZM71.7635 63.6072V63.1214L70.4795 62.3579V62.8785L70.7919 63.0867V64.2318L69.265 63.3643V62.4274C69.265 62.2885 69.3344 62.2538 69.4385 62.3232L69.612 62.3927V61.9068L68.328 61.1434V61.6639L68.6404 61.8721V64.7177C68.6404 64.8565 68.571 64.8218 68.4669 64.7871L68.2933 64.7177V65.2035L69.5773 65.9669V65.4464L69.265 65.2382V63.9889L70.7919 64.8565V65.9322C70.7919 66.071 70.7225 66.1057 70.6184 66.0363L70.4448 65.9669V66.4527L71.7288 67.2162V66.6957L71.4165 66.4874V63.6419C71.4165 63.5031 71.4859 63.5031 71.5553 63.5378L71.7288 63.6072H71.7635ZM59.9303 54.4807L84.9848 68.9513L84.9501 76.4468L59.8956 61.9762L59.9303 54.4807Z" fill="#20C1F3"/>
</svg>
